<svg width="63" height="63" viewBox="0 0 63 63" fill="none" xmlns="http://www.w3.org/2000/svg">
<g clip-path="url(#clip0_1270_3435)">
<path d="M61.6757 28.6641L34.3916 1.38142C32.8212 -0.189885 30.2728 -0.189885 28.7005 1.38142L23.0348 7.04712L30.222 14.2343C31.8922 13.67 33.8074 14.0486 35.1388 15.3799C36.4765 16.7198 36.8524 18.6514 36.2743 20.327L43.2008 27.2537C44.8766 26.6764 46.8102 27.0499 48.1486 28.3905C50.0192 30.2604 50.0192 33.2909 48.1486 35.162C46.2775 37.0333 43.247 37.0333 41.3749 35.162C39.9679 33.7535 39.6203 31.6872 40.3326 29.9538L33.8731 23.4942L33.8723 40.493C34.3406 40.7246 34.7683 41.0304 35.1388 41.3987C37.0093 43.2685 37.0093 46.2993 35.1388 48.1719C33.2677 50.0422 30.2357 50.0422 28.3673 48.1719C26.4967 46.2993 26.4967 43.2688 28.3673 41.3989C28.8156 40.9504 29.3483 40.5952 29.9347 40.3539V23.1967C29.3474 22.9569 28.8144 22.6016 28.3673 22.1516C26.95 20.7363 26.6092 18.6568 27.3355 16.9166L20.2505 9.8309L1.54231 28.5379C-0.0297284 30.1107 -0.0297284 32.6594 1.54231 34.231L28.8269 61.5142C30.3977 63.0857 32.9457 63.0857 34.5185 61.5142L61.6754 34.3577C63.247 32.7856 63.2472 30.2355 61.6757 28.6641Z" fill="#8C8C8C"/>
</g>
<defs>
<clipPath id="clip0_1270_3435">
<rect width="62.4911" height="62.4911" fill="white" transform="translate(0.363281 0.202881)"/>
</clipPath>
</defs>
</svg>
