<svg width="64" height="63" viewBox="0 0 64 63" fill="none" xmlns="http://www.w3.org/2000/svg">
<g clip-path="url(#clip0_1270_3424)">
<rect width="62.4911" height="62.4911" transform="translate(0.618164 0.202881)" fill="#8C8C8C"/>
<path d="M0.617188 0.202881H63.1083V62.6939H0.617188V0.202881Z" fill="#8C8C8C"/>
<path d="M57.9968 47.7899C57.5394 44.9386 55.6801 42.5447 50.1735 40.3112C48.2608 39.432 46.1282 38.8024 45.4926 37.353C45.2669 36.5095 45.2372 36.0342 45.3797 35.5234C45.7896 33.8661 47.7677 33.3493 49.3359 33.8245C50.3458 34.1631 51.3021 34.9413 51.8783 36.1827C54.5752 34.4364 54.5693 34.4482 56.4523 33.2483C55.7632 32.1791 55.395 31.686 54.9435 31.2287C53.3218 29.4169 51.1121 28.4843 47.5776 28.5556C46.9658 28.6328 46.3481 28.7159 45.7362 28.7932C43.972 29.2387 42.2908 30.1654 41.3048 31.4069C38.3465 34.7631 39.19 40.6379 42.7898 43.0556C46.3361 45.7168 51.5457 46.3227 52.211 48.8117C52.8585 51.859 49.9716 52.845 47.1024 52.4946C44.9877 52.0551 43.8116 50.9799 42.5403 49.0255C40.1999 50.3799 40.1999 50.3799 37.7942 51.764C38.3644 53.0114 38.9643 53.5757 39.9208 54.6569C44.4472 59.2487 55.7751 59.0229 57.8067 52.0729C57.8898 51.8352 58.4364 50.2432 57.9968 47.7899ZM34.5923 28.9238H28.7471C28.7471 33.973 28.7234 38.9865 28.7234 44.0357C28.7234 47.2494 28.8898 50.1957 28.367 51.0986C27.5116 52.8747 25.2959 52.655 24.2861 52.3104C23.2584 51.8054 22.7357 51.0867 22.1298 50.071C21.9635 49.7799 21.8387 49.5542 21.7971 49.5363C20.2111 50.5046 18.631 51.4787 17.0449 52.447C17.835 54.0687 18.9993 55.4766 20.4902 56.3913C22.7178 57.7278 25.7117 58.1377 28.8422 57.4189C30.8797 56.8249 32.638 55.5954 33.5587 53.7242C34.8893 51.2709 34.6042 48.3008 34.5923 45.0158C34.622 39.6578 34.5923 34.2997 34.5923 28.9238Z" fill="#020202"/>
</g>
<defs>
<clipPath id="clip0_1270_3424">
<rect width="62.4911" height="62.4911" fill="white" transform="translate(0.618164 0.202881)"/>
</clipPath>
</defs>
</svg>
