<svg width="70" height="63" viewBox="0 0 70 63" fill="none" xmlns="http://www.w3.org/2000/svg">
<path d="M69.8978 31.4556C69.8978 26.8182 64.1076 22.4234 55.2302 19.6981C57.2789 10.6232 56.3684 3.40315 52.3565 1.09161C51.4318 0.549396 50.3505 0.292558 49.1697 0.292558V3.4745C49.8242 3.4745 50.3505 3.60291 50.7916 3.84548C52.7264 4.95845 53.5657 9.19627 52.9113 14.6469C52.7548 15.9882 52.4987 17.4008 52.1858 18.842C49.3974 18.1571 46.3529 17.6291 43.1519 17.2867C41.2314 14.6469 39.2396 12.2498 37.2337 10.1523C41.8715 5.82884 46.2249 3.46023 49.184 3.46023V0.27829C45.2717 0.27829 40.1501 3.07497 34.9717 7.92635C29.7932 3.10351 24.6717 0.335365 20.7594 0.335365V3.5173C23.7043 3.5173 28.0718 5.87165 32.7097 10.1666C30.718 12.2641 28.7263 14.6469 26.8341 17.2867C23.6189 17.6291 20.5745 18.1571 17.7861 18.8562C17.4589 17.4294 17.217 16.0453 17.0463 14.7183C16.3777 9.26762 17.2028 5.02979 19.1234 3.90256C19.5502 3.64572 20.105 3.53157 20.7594 3.53157V0.349634C19.5644 0.349634 18.4832 0.606471 17.5442 1.14868C13.5466 3.46023 12.6503 10.666 14.7132 19.7124C5.86427 22.452 0.102539 26.8325 0.102539 31.4556C0.102539 36.0929 5.89272 40.4877 14.7701 43.213C12.7214 52.288 13.6319 59.508 17.6438 61.8195C18.5685 62.3617 19.6498 62.6186 20.8448 62.6186C24.7571 62.6186 29.8786 59.8219 35.0571 54.9705C40.2355 59.7934 45.357 62.5615 49.2693 62.5615C50.4644 62.5615 51.5456 62.3047 52.4845 61.7624C56.4822 59.4509 57.3784 52.2452 55.3156 43.1988C64.136 40.4734 69.8978 36.0786 69.8978 31.4556ZM51.3748 21.9383C50.8485 23.779 50.194 25.6767 49.4543 27.5745C48.871 26.433 48.2592 25.2915 47.5906 24.15C46.9362 23.0084 46.2391 21.8955 45.542 20.8111C47.5622 21.1107 49.5112 21.4817 51.3748 21.9383ZM44.8591 37.1345C43.7494 39.0608 42.6113 40.8872 41.4305 42.5852C39.3108 42.7707 37.1626 42.8706 35.0001 42.8706C32.8519 42.8706 30.7037 42.7707 28.5982 42.5995C27.4174 40.9015 26.2651 39.0894 25.1554 37.1773C24.0742 35.3081 23.0926 33.4104 22.1963 31.4984C23.0783 29.5864 24.0742 27.6743 25.1412 25.8051C26.2509 23.8788 27.389 22.0524 28.5698 20.3545C30.6895 20.169 32.8377 20.0691 35.0001 20.0691C37.1483 20.0691 39.2966 20.169 41.4021 20.3402C42.5829 22.0382 43.7352 23.8503 44.8449 25.7623C45.9261 27.6315 46.9077 29.5293 47.804 31.4413C46.9077 33.3533 45.9261 35.2653 44.8591 37.1345ZM49.4543 35.2796C50.2225 37.1916 50.8769 39.1036 51.4175 40.9586C49.5539 41.4152 47.5906 41.8004 45.5562 42.1001C46.2533 41.0014 46.9504 39.8741 47.6048 38.7184C48.2593 37.5769 48.871 36.4211 49.4543 35.2796ZM35.0286 50.5044C33.7055 49.1346 32.3825 47.6078 31.0736 45.9384C32.354 45.9954 33.6629 46.0383 34.9859 46.0383C36.3232 46.0383 37.6463 46.0097 38.9409 45.9384C37.6605 47.6078 36.3374 49.1346 35.0286 50.5044ZM24.4441 42.1001C22.4239 41.8004 20.4749 41.4294 18.6112 40.9728C19.1376 39.1322 19.792 37.2344 20.5318 35.3367C21.1151 36.4782 21.7268 37.6197 22.3955 38.7612C23.0641 39.9027 23.747 41.0156 24.4441 42.1001ZM34.9575 12.4067C36.2805 13.7766 37.6036 15.3033 38.9124 16.9728C37.632 16.9157 36.3232 16.8729 35.0001 16.8729C33.6629 16.8729 32.3398 16.9014 31.0452 16.9728C32.3256 15.3033 33.6486 13.7766 34.9575 12.4067ZM24.4299 20.8111C23.7328 21.9098 23.0357 23.037 22.3812 24.1928C21.7268 25.3343 21.1151 26.4758 20.5318 27.6173C19.7636 25.7052 19.1091 23.7932 18.5685 21.9383C20.4322 21.496 22.3955 21.1107 24.4299 20.8111ZM11.5549 38.6756C6.51869 36.521 3.26082 33.6958 3.26082 31.4556C3.26082 29.2154 6.51869 26.3759 11.5549 24.2356C12.7784 23.7076 14.1156 23.2367 15.4956 22.7944C16.3065 25.5911 17.3735 28.5019 18.6966 31.4841C17.3877 34.452 16.335 37.3486 15.5383 40.131C14.1299 39.6886 12.7926 39.2035 11.5549 38.6756ZM19.2087 59.0656C17.2739 57.9527 16.4346 53.7149 17.089 48.2642C17.2455 46.9229 17.5016 45.5103 17.8145 44.0692C20.6029 44.7541 23.6474 45.282 26.8484 45.6245C28.7689 48.2642 30.7607 50.6613 32.7666 52.7588C28.1287 57.0823 23.7754 59.4509 20.8163 59.4509C20.1761 59.4366 19.6355 59.3082 19.2087 59.0656ZM52.954 48.1928C53.6226 53.6435 52.7975 57.8813 50.8769 59.0086C50.4501 59.2654 49.8953 59.3796 49.2409 59.3796C46.296 59.3796 41.9285 57.0252 37.2906 52.7303C39.2823 50.6328 41.274 48.2499 43.1662 45.6102C46.3814 45.2677 49.4258 44.7398 52.2142 44.0406C52.5414 45.4818 52.7975 46.8658 52.954 48.1928ZM58.4312 38.6756C57.2077 39.2035 55.8704 39.6744 54.4905 40.1167C53.6795 37.32 52.6126 34.4092 51.2895 31.427C52.5983 28.4591 53.6511 25.5626 54.4478 22.7801C55.8562 23.2225 57.1935 23.7076 58.4454 24.2356C63.4816 26.3901 66.7395 29.2154 66.7395 31.4556C66.7252 33.6958 63.4674 36.5352 58.4312 38.6756Z" fill="#8C8C8C"/>
<path d="M34.9849 37.9764C38.5756 37.9764 41.4864 35.057 41.4864 31.4556C41.4864 27.8543 38.5756 24.9348 34.9849 24.9348C31.3942 24.9348 28.4834 27.8543 28.4834 31.4556C28.4834 35.057 31.3942 37.9764 34.9849 37.9764Z" fill="#8C8C8C"/>
</svg>
