<svg width="83" height="63" viewBox="0 0 83 63" fill="none" xmlns="http://www.w3.org/2000/svg">
<path d="M71.3017 36.0569C68.4057 36.0733 65.8981 36.7688 63.7948 37.8044C63.0183 36.2674 62.2417 34.9244 62.1124 33.9215C61.9668 32.7566 61.7888 32.0446 61.9668 30.6534C62.1446 29.2619 62.9536 27.2881 62.9536 27.1263C62.9372 26.9807 62.7754 26.2688 61.1092 26.2527C59.443 26.2365 58.0029 26.5762 57.8411 27.0131C57.6793 27.4499 57.3558 28.453 57.1454 29.4884C56.8542 31.0092 53.8126 36.3967 52.0815 39.2279C51.5153 38.1278 51.0299 37.1571 50.9327 36.3803C50.7872 35.2156 50.6091 34.5036 50.7872 33.1124C50.9652 31.7209 51.7741 29.7472 51.7741 29.5855C51.7579 29.4399 51.5962 28.728 49.9299 28.7118C48.2634 28.6956 46.8236 29.0354 46.6618 29.4722C46.5001 29.909 46.3221 30.9445 45.9662 31.9475C45.6263 32.9506 41.5816 41.9459 40.53 44.2918C39.9961 45.4891 39.5271 46.4436 39.1872 47.0907C38.8474 47.7379 39.171 47.1393 39.1386 47.204C38.8474 47.7541 38.6856 48.0615 38.6856 48.0615V48.0778C38.4591 48.4823 38.2164 48.8704 38.103 48.8704C38.0221 48.8704 37.8603 47.7864 38.1354 46.2981C38.734 43.1755 40.1901 38.3059 40.1741 38.1279C40.1741 38.047 40.4489 37.1894 39.2355 36.7528C38.0545 36.3159 37.634 37.044 37.5368 37.044C37.4397 37.044 37.3588 37.3028 37.3588 37.3028C37.3588 37.3028 38.6693 31.8184 34.8511 31.8184C32.4567 31.8184 29.1562 34.4232 27.5222 36.8014C26.4868 37.3677 24.2865 38.5648 21.9568 39.843C21.0669 40.3284 20.1448 40.8461 19.2711 41.3153L19.0933 41.1208C14.4662 36.1863 5.90773 32.6918 6.26366 26.0585C6.39309 23.6479 7.23438 17.2897 22.7013 9.58868C35.3692 3.27902 45.5132 5.01013 47.2765 8.86064C49.7842 14.3614 41.8566 24.5863 28.6874 26.0585C23.672 26.6248 21.0347 24.6833 20.3716 23.9553C19.6759 23.1949 19.5788 23.1625 19.32 23.3082C18.8993 23.5347 19.1582 24.2142 19.32 24.6186C19.7083 25.6379 21.3261 27.4499 24.0765 28.3559C26.4869 29.1486 32.3761 29.5855 39.4947 26.8351C47.4708 23.745 53.6995 15.1703 51.8714 8.00318C50.0108 0.706617 37.9092 -1.68782 26.4709 2.37301C19.6596 4.79981 12.2821 8.58561 6.97552 13.5524C0.665858 19.4415 -0.337217 24.5863 0.0834274 26.7218C1.55584 34.342 12.0556 39.3088 16.2621 42.9814C16.0517 43.0945 15.8576 43.2077 15.6796 43.3049C13.5764 44.3402 5.56798 48.5306 3.56183 52.9634C1.29682 57.9788 3.91776 61.5868 5.66505 62.0721C11.0687 63.5768 16.6018 60.8749 19.5948 56.4258C22.5715 51.9767 22.2158 46.2009 20.8406 43.5638L20.7919 43.4667L22.4421 42.496C23.5101 41.865 24.5617 41.2826 25.4837 40.7809C24.9661 42.1884 24.5939 43.8548 24.3999 46.2816C24.1734 49.1292 25.3383 52.8178 26.8752 54.2739C27.5547 54.9047 28.3637 54.921 28.8652 54.921C30.6448 54.921 31.4538 53.4486 32.3436 51.6853C33.4437 49.5335 34.4145 47.042 34.4145 47.042C34.4145 47.042 33.2011 53.7885 36.5177 53.7885C37.7311 53.7885 38.9445 52.2192 39.4945 51.4103V51.4264C39.4945 51.4264 39.5269 51.3779 39.5916 51.2647C39.6595 51.1643 39.7243 51.0618 39.7858 50.9574V50.9251C40.2711 50.0838 41.3551 48.1585 42.973 44.9713C45.0598 40.862 47.0661 35.7172 47.0661 35.7172C47.0661 35.7172 47.2603 36.9791 47.8589 39.05C48.2147 40.2797 48.9912 41.6224 49.5898 42.9328C49.1045 43.6123 48.8133 44.0008 48.8133 44.0008L48.8295 44.017C48.4413 44.5347 48.0043 45.0849 47.5515 45.6348C45.9013 47.6086 43.9275 49.8576 43.6686 50.5047C43.3612 51.265 43.426 51.8312 44.0246 52.2844C44.4614 52.608 45.238 52.6725 46.0631 52.608C47.5515 52.5107 48.5869 52.1388 49.1046 51.9121C49.9136 51.6209 50.8358 51.1841 51.7256 50.5369C53.3435 49.3399 54.3303 47.6411 54.2333 45.3761C54.1847 44.1304 53.7803 42.9008 53.2787 41.7359C53.4243 41.5256 53.5701 41.3151 53.7156 41.0888C56.2718 37.3514 58.2456 33.2422 58.2456 33.2422C58.2456 33.2422 58.4397 34.5041 59.0383 36.5749C59.3456 37.6266 59.9605 38.7754 60.5106 39.9079C58.1161 41.8655 56.6115 44.1305 56.0938 45.619C55.1393 48.3693 55.8835 49.6151 57.291 49.9063C57.9218 50.0357 58.828 49.7445 59.5073 49.4533C60.3486 49.1783 61.3679 48.7089 62.3064 48.0134C63.9243 46.8162 65.4774 45.1498 65.3965 42.901C65.348 41.8655 65.0729 40.8463 64.7008 39.8755C66.7393 39.0343 69.3763 38.5489 72.7254 38.9534C79.9249 39.7947 81.3486 44.2923 81.0738 46.169C80.7987 48.0459 79.2941 49.0812 78.7924 49.4048C78.2909 49.7122 78.1291 49.8256 78.1776 50.0519C78.2423 50.3918 78.4688 50.3755 78.9057 50.3109C79.5043 50.2137 82.6915 48.774 82.8209 45.3119C83.015 40.8621 78.7924 36.0085 71.3017 36.0569ZM15.7767 54.7756C13.3984 57.3803 10.0495 58.3672 8.62574 57.5259C7.08877 56.6361 7.68722 52.8018 10.6157 50.0352C12.3954 48.3527 14.7089 46.7995 16.2297 45.845C16.5694 45.6347 17.0872 45.3274 17.7019 44.9552C17.799 44.8906 17.8637 44.8581 17.8637 44.8581C17.977 44.7934 18.1064 44.7125 18.2358 44.6316C19.3198 48.5792 18.2844 52.0414 15.7767 54.7756ZM33.1687 42.949C32.3436 44.9713 30.5963 50.1647 29.5447 49.8735C28.6385 49.6308 28.0886 45.6994 29.3666 41.8165C30.0137 39.8587 31.3889 37.5292 32.1978 36.623C33.5085 35.1669 34.932 34.6816 35.2881 35.2802C35.7088 36.0569 33.6864 41.6871 33.1687 42.949ZM47.5191 49.8087C47.1632 49.9869 46.8396 50.1161 46.694 50.0192C46.5808 49.9545 46.8395 49.7118 46.8395 49.7118C46.8395 49.7118 48.6353 47.7866 49.3472 46.8968C49.7516 46.3792 50.237 45.7806 50.7547 45.1009V45.2951C50.7549 47.6246 48.5222 49.1778 47.5191 49.8087ZM58.5852 47.2849C58.3263 47.0907 58.3588 46.4921 59.2323 44.6154C59.5722 43.8712 60.3486 42.6254 61.6915 41.4444C61.8532 41.9297 61.9505 42.3988 61.9341 42.8358C61.9181 45.7479 59.8473 46.8319 58.5852 47.2849Z" fill="#8C8C8C"/>
</svg>
