<svg width="105" height="63" viewBox="0 0 105 63" fill="none" xmlns="http://www.w3.org/2000/svg">
<path d="M52.3456 0.202881C38.4851 0.202881 29.8219 7.14647 26.3569 21.0332C31.5546 14.0896 37.6185 11.4859 44.549 13.2219C48.5029 14.2121 51.3292 17.0865 54.4576 20.2676C59.5538 25.4503 65.4516 31.4484 78.3343 31.4484C92.1948 31.4484 100.858 24.5048 104.323 10.6181C99.1253 17.5616 93.0614 20.1654 86.1309 18.4294C82.177 17.4392 79.3507 14.5648 76.2223 11.3837C71.1261 6.20096 65.2283 0.202881 52.3456 0.202881ZM26.3569 31.4484C12.4964 31.4484 3.83319 38.392 0.368164 52.2788C5.56591 45.3352 11.6298 42.7314 18.5603 44.4674C22.5142 45.4576 25.3405 48.332 28.4689 51.5131C33.5651 56.6959 39.4629 62.6939 52.3456 62.6939C66.2061 62.6939 74.8693 55.7504 78.3343 41.8636C73.1366 48.8072 67.0727 51.411 60.1422 49.675C56.1883 48.6847 53.362 45.8104 50.2336 42.6293C45.1374 37.4465 39.2396 31.4484 26.3569 31.4484Z" fill="#8C8C8C"/>
</svg>
